<?xml version="1.0" encoding="utf-8"?>
<!-- Generator: Adobe Illustrator 21.0.0, SVG Export Plug-In . SVG Version: 6.00 Build 0)  -->
<svg version="1.1" id="Capa_1" xmlns="http://www.w3.org/2000/svg" xmlns:xlink="http://www.w3.org/1999/xlink" x="0px" y="0px"
	 viewBox="0 0 192 187.8" style="enable-background:new 0 0 192 187.8;" xml:space="preserve">
<g transform="translate(-165.363,-342.51957)">
	<path d="M280,349.5c-1.9,0.1-3.8,0.9-5.2,2.5l-6.2,6.9l43.1,38.6l6.2-6.9c2.8-3.1,2.5-7.9-0.6-10.7l-31.7-28.5
		C284,350,282,349.4,280,349.5L280,349.5z M269.2,366l-39.9,44.4l35.3,31.7l9.9-11c2-2.2,5.4-2.4,7.7-0.4l54.5,48.9
		c3.5,3.2,9,3.7,12.7,0.7c4.7-3.8,4.8-10.7,0.4-14.6l-54.8-49.3c-2.2-2-2.4-5.4-0.4-7.6l9.9-11L269.2,366L269.2,366z M222.3,410.5
		l-6.2,6.9c-2.8,3.1-2.6,7.9,0.5,10.7l31.8,28.6c3.1,2.8,7.9,2.5,10.7-0.6l6.2-6.9L222.3,410.5L222.3,410.5z M205.3,471.9
		c-6.1,0-11.1,4.9-11.1,11.1v9.7h95.1V483h0c0-6.1-4.9-11.1-11.1-11.1H205.3L205.3,471.9z M169.7,502.6V514c0,5.1,4.2,9.3,9.3,9.3
		h125.6c5.1,0,9.3-4.2,9.3-9.3v-11.4H169.7z"/>
</g>
</svg>
