<?xml version="1.0" encoding="utf-8"?>
<!-- Generator: Adobe Illustrator 21.0.0, SVG Export Plug-In . SVG Version: 6.00 Build 0)  -->
<svg version="1.1" id="Capa_1" xmlns="http://www.w3.org/2000/svg" xmlns:xlink="http://www.w3.org/1999/xlink" x="0px" y="0px"
	 viewBox="0 0 192 187.8" style="enable-background:new 0 0 192 187.8;" xml:space="preserve">
<g>
	<path d="M103.2,133.4v2.9v37c0,4,3.3,7.3,7.3,7.3c4,0,7.3-3.3,7.3-7.3v-37v-2.9H103.2z"/>
	<path d="M134.9,133.4h-14.6v2.9v37c0,4,3.3,7.3,7.3,7.3c4,0,7.3-3.3,7.3-7.3v-27.2V133.4z"/>
	<path d="M26.1,101.4c0.3-0.2,0.6-0.5,0.9-0.7c-3.7-1.7-6.5-5-7.4-9.1c-0.8,0.7-1.6,1.3-2.5,2c-2.6,1.9-3.1,5.6-1.2,8.2
		c0.9,1.2,2.2,2,3.6,2.3c0.7-0.5,1.3-0.8,1.9-1.1C22.2,102.4,23.7,101.8,26.1,101.4z"/>
	<path d="M42.4,80.2c1-2.1,1.9-4.2,2.7-6.1c1.6-3.8,3.1-7.2,4.9-10.1c0.2-0.4,0.5-0.7,0.7-1.1c0.2-0.4,0.5-0.7,0.7-1v48.4
		c4.3,6.1,7.1,14.8,8.4,26c0.3,2.8-1.7,5.4-4.5,5.7c-0.2,0-0.4,0-0.6,0c-1.2,0-2.4-0.4-3.3-1.2v30.9c0,5,4.1,9.1,9.1,9.1
		c5,0,9.1-4.1,9.1-9.1v-66.1H73v66.1c0,5,4.1,9.1,9.1,9.1c5,0,9.1-4.1,9.1-9.1v-38.2h-3.7h-1.8l0.3-1.7l5.2-26.6V54.2
		c2.2-0.7,5.3-1.5,8.9-2.2c-2,1.3-4.2,3.2-6.5,5.9c-0.3,0.4-0.6,0.8-1,1.2v19.5c2.6-6.7,5.4-11.2,7.9-14.2L87.3,132h49
		c0.5-10.4,2.5-18.5,5.8-24.4c1-1.8,2.1-3.2,3.1-4.3l-7.5-38.8c4.2,2.4,9.8,5.2,16.7,7.9c2.1-1.3,4.6-2,7.3-2c5.8,0,10.8,3.5,13,8.5
		c0.6,0.2,1.3,0.3,2,0.5c2.6,0.6,5.1-0.9,5.7-3.5c0.6-2.6-0.9-5.1-3.5-5.7c-10.8-2.6-19.5-5.8-26.3-8.8c-0.2,0.3-0.4,0.5-0.7,0.8
		c-1.4,1.4-3.2,2.1-5.1,2.1c-2,0-3.8-0.8-5.2-2.2c-1.5-1.5-3.1-2.9-4.9-4l-0.2-1.8c2.2,1.3,4.2,2.9,6.1,4.8c1.1,1.2,2.7,1.7,4.2,1.7
		c1.5,0,3-0.6,4.1-1.7c2.3-2.3,2.3-6,0-8.3c-5.3-5.4-11.6-8.9-18-11c-0.4-0.1-0.8-0.3-1.3-0.4c-3.2,3.4-7.7,5.5-12.6,5.5
		c-1.3,0-2.6-0.2-3.9-0.5c-4.2-1-7.8-3.4-10.2-7c-10,1.1-17.8,3.6-20.7,4.6H57.1c-0.2,0-0.3,0-0.5,0c-0.9,0-1.9,0.2-2.8,0.7
		c-1.1,0.6-2.1,1.2-3.1,1.9c-4.1,2.7-7.3,6.1-9.7,9.6c-4.3,6.4-6.4,13.1-9.4,19.3c0.3,0,0.5,0,0.8,0C36.4,75.5,40,77.3,42.4,80.2z"
		/>
	<circle cx="71.3" cy="23.5" r="16.5"/>
	<circle cx="161.6" cy="84.6" r="12.8"/>
	<path d="M148.8,174.7c0,3.2,2.6,5.9,5.9,5.9s5.9-2.6,5.9-5.9v-24.8h2.2v24.8c0,3.2,2.6,5.9,5.9,5.9c3.2,0,5.9-2.6,5.9-5.9v-38.2
		h-25.6L148.8,174.7L148.8,174.7z"/>
	<path d="M137.6,138.2c0,1,0,2.1,0,3.1c0.1,2.2,1.8,3.9,4,3.9c0,0,0.1,0,0.1,0c2.2-0.1,4-1.9,3.9-4.1c0-1,0-2,0-2.9
		c0-11.1,1.5-18.1,3.1-22.5v19h25.6v-19c1.7,4.4,3.1,11.5,3.1,22.5c0,1,0,1.9,0,3c0,2.2,1.7,4.1,3.9,4.1c0,0,0.1,0,0.1,0
		c2.2,0,4-1.7,4-3.9c0-1.1,0-2.1,0-3.1c0-15.4-2.7-24.4-5.7-29.9c-3-5.4-6.6-7.1-7.4-7.3c-0.2-0.1-0.4-0.1-0.5-0.1
		c-0.4-0.1-0.7-0.2-1.1-0.2h-18.3c-0.4,0-0.8,0.1-1.1,0.2c-0.2,0-0.4,0.1-0.5,0.1h0c-0.8,0.2-4.4,1.9-7.4,7.3
		C140.3,113.7,137.6,122.8,137.6,138.2z"/>
	<ellipse transform="matrix(0.2268 -0.9739 0.9739 0.2268 63.1325 138.9142)" cx="119.1" cy="29.7" rx="15.7" ry="15.7"/>
	<path d="M34,175.6c0,2.6,2.1,4.8,4.8,4.8s4.8-2.1,4.8-4.8V152c-3,0.8-6.6,1.3-9.5,1.5V175.6z"/>
	<path d="M21.2,175.6c0,2.6,2.1,4.8,4.8,4.8s4.8-2.1,4.8-4.8v-22.1c-2.9-0.2-6.5-0.7-9.5-1.5C21.2,152,21.2,175.6,21.2,175.6z"/>
	<circle cx="32.4" cy="88.7" r="11.7"/>
	<path d="M9.6,140.5c0.1,0,0.3,0,0.4,0c1.8,0,3.4-1.4,3.6-3.2c1-9,3-14.9,5-18.9c-1.6,9-3.3,20.5-3.3,28.5c0,2.8,11.2,5,17,5
		s17-2.2,17-5c0-8-1.7-19.5-3.3-28.5c2,4,4,9.9,5,18.9c0.2,1.9,1.8,3.2,3.6,3.2c0.1,0,0.3,0,0.4,0c2-0.2,3.5-2,3.2-4.1
		c-1.6-14.1-5.5-22.3-9.4-27.1c-2.3-2.8-4.6-4.3-6.2-5.1c-1.1-0.7-3.9-1.8-10.4-1.8c-6.4,0-9.3,1.2-10.4,1.8
		c-1.6,0.8-3.9,2.3-6.2,5.1c-3.9,4.7-7.8,12.9-9.4,27.1C6.2,138.4,7.6,140.2,9.6,140.5z"/>
</g>
</svg>
