<?xml version="1.0" encoding="utf-8"?>
<!-- Generator: Adobe Illustrator 21.0.0, SVG Export Plug-In . SVG Version: 6.00 Build 0)  -->
<svg version="1.1" id="Capa_1" xmlns="http://www.w3.org/2000/svg" xmlns:xlink="http://www.w3.org/1999/xlink" x="0px" y="0px"
	 viewBox="0 0 192 187.8" style="enable-background:new 0 0 192 187.8;" xml:space="preserve">
<path d="M183.3,87.9h-27.1V48.7h15.1c1.7,0,3-1.3,3-3V27.7c0-10-8.1-18.1-18.1-18.1H53.8c-10,0-18.1,8.1-18.1,18.1V127H8.7
	c-1.7,0-3,1.3-3,3v18.1c0,10,8.1,18.1,18.1,18.1h96.4v9c0,1.7,1.3,3,3,3h60.2c1.7,0,3-1.3,3-3V90.9C186.3,89.2,185,87.9,183.3,87.9z
	 M156.2,15.6c6.6,0,12,5.4,12,12v15.1H71.9V27.7c0-4.6-1.8-8.8-4.6-12H156.2z M11.7,148.1V133h24.1v15.1c0,6.6-5.4,12-12,12
	S11.7,154.7,11.7,148.1z M120.1,90.9v69.3H37.2c2.9-3.2,4.6-7.4,4.6-12V27.7c0-6.6,5.4-12,12-12s12,5.4,12,12v18.1c0,1.7,1.3,3,3,3
	h81.3v39.1h-27.1C121.4,87.9,120.1,89.2,120.1,90.9z M180.3,172.2h-54.2V93.9h54.2V172.2z M71.9,90.9c-10,0-18.1,8.1-18.1,18.1
	c0,3.7,1.1,7.1,3,10v26.2c0,1.1,0.6,2.2,1.7,2.7c1,0.5,2.2,0.4,3.2-0.3l10.2-7.7l10.2,7.7c0.9,0.7,2.1,0.8,3.2,0.3
	c1-0.5,1.7-1.6,1.7-2.7v-26.2c1.9-2.9,3-6.3,3-10C90,99,81.9,90.9,71.9,90.9z M71.9,96.9c6.6,0,12,5.4,12,12s-5.4,12-12,12
	s-12-5.4-12-12S65.3,96.9,71.9,96.9z M73.7,133.6c-1.1-0.8-2.5-0.8-3.6,0l-7.2,5.4v-14.5c2.7,1.5,5.7,2.4,9,2.4c3.3,0,6.4-0.9,9-2.4
	v14.5L73.7,133.6z M135.1,118h36.1c1.7,0,3-1.3,3-3v-12c0-1.7-1.3-3-3-3h-36.1c-1.7,0-3,1.3-3,3v12C132.1,116.6,133.5,118,135.1,118
	z M138.2,105.9h30.1v6h-30.1V105.9z M135.1,142.1h12c1.7,0,3-1.3,3-3v-12c0-1.7-1.3-3-3-3h-12c-1.7,0-3,1.3-3,3v12
	C132.1,140.7,133.5,142.1,135.1,142.1z M138.2,130h6v6h-6V130z M171.3,124h-12c-1.7,0-3,1.3-3,3v12c0,1.7,1.3,3,3,3h12
	c1.7,0,3-1.3,3-3v-12C174.3,125.4,172.9,124,171.3,124z M168.3,136.1h-6v-6h6V136.1z M135.1,166.2h12c1.7,0,3-1.3,3-3v-12
	c0-1.7-1.3-3-3-3h-12c-1.7,0-3,1.3-3,3v12C132.1,164.8,133.5,166.2,135.1,166.2z M138.2,154.1h6v6h-6V154.1z M171.3,148.1h-12
	c-1.7,0-3,1.3-3,3v12c0,1.7,1.3,3,3,3h12c1.7,0,3-1.3,3-3v-12C174.3,149.5,172.9,148.1,171.3,148.1z M168.3,160.1h-6v-6h6V160.1z"/>
</svg>
