<?xml version="1.0" encoding="utf-8"?>
<!-- Generator: Adobe Illustrator 21.0.0, SVG Export Plug-In . SVG Version: 6.00 Build 0)  -->
<svg version="1.1" id="Capa_1" xmlns="http://www.w3.org/2000/svg" xmlns:xlink="http://www.w3.org/1999/xlink" x="0px" y="0px"
	 viewBox="0 0 192 187.8" style="enable-background:new 0 0 192 187.8;" xml:space="preserve">
<g>
	<g transform="translate(-240.000000, -762.000000)">
		<g transform="translate(240.000000, 762.000000)">
			<path d="M84.5,28.1L96,12.8l11.5,15.3c20.2,26.9,44.3,50.6,71.6,70.2v34.2c-1.4-1-2.8-2.1-4.2-3.1c-1.5-1.1-2.9-2.2-4.4-3.3
				c-1.6-1.2-3.1-2.5-4.6-3.7c-1.4-1.2-2.9-2.3-4.3-3.5c-1.5-1.3-3-2.5-4.5-3.8c-1.4-1.2-2.8-2.4-4.2-3.6c-1.5-1.3-2.9-2.7-4.3-4
				c-1.4-1.3-2.7-2.5-4.1-3.8c-1.4-1.4-2.8-2.8-4.2-4.2c-1.3-1.3-2.6-2.6-3.9-3.9c-1.4-1.4-2.7-2.9-4.1-4.3c-1.3-1.3-2.5-2.7-3.8-4
				c-1.3-1.5-2.6-3-3.9-4.5c-1.2-1.4-2.4-2.7-3.6-4.1c-1.3-1.5-2.5-3.1-3.8-4.6c-1.2-1.4-2.3-2.8-3.5-4.2L98.3,50.5
				c-1.1-1.4-3.5-1.4-4.7,0L78.2,70.1c-2.4,3-4.8,5.9-7.2,8.9c-0.9,1.1-1.9,2.1-2.8,3.2c-1.6,1.8-3.1,3.6-4.8,5.4
				c-1.1,1.2-2.3,2.4-3.4,3.7c-1.5,1.6-2.9,3.1-4.4,4.7c-1.2,1.3-2.5,2.5-3.8,3.7c-1.4,1.4-2.9,2.9-4.4,4.3c-1.3,1.3-2.7,2.5-4,3.7
				c-1.5,1.3-2.9,2.7-4.4,4c-1.4,1.2-2.8,2.4-4.2,3.6c-1.5,1.3-3,2.6-4.5,3.9c-1.4,1.2-2.9,2.3-4.3,3.4c-1.5,1.2-3.1,2.5-4.6,3.7
				c-1.4,1.1-2.9,2.2-4.4,3.3c-1.4,1-2.8,2.1-4.2,3.1V98.4C40.2,78.7,64.3,55.1,84.5,28.1 M183.8,94.4c-27.3-19.5-51.4-43-71.5-69.9
				L98.4,6.1c-1.1-1.5-3.6-1.5-4.7,0L79.8,24.6C59.6,51.4,35.6,74.9,8.2,94.4C7.5,95,7,95.9,7,96.8v41.5v41.5c0,1.1,0.6,2.1,1.6,2.6
				c1,0.5,2.2,0.4,3.1-0.2l3.4-2.4c25.5-18.2,48.3-40,67.8-64.6L96,98.7l13.1,16.6c19.4,24.6,42.2,46.4,67.8,64.6l3.4,2.4
				c0.5,0.4,1.1,0.6,1.7,0.6c0.5,0,0.9-0.1,1.4-0.3c1-0.5,1.6-1.5,1.6-2.6v-41.5V96.8C185,95.9,184.5,95,183.8,94.4"/>
		</g>
	</g>
</g>
</svg>
