<?xml version="1.0" encoding="utf-8"?>
<!-- Generator: Adobe Illustrator 21.0.0, SVG Export Plug-In . SVG Version: 6.00 Build 0)  -->
<svg version="1.1" id="Capa_1" xmlns="http://www.w3.org/2000/svg" xmlns:xlink="http://www.w3.org/1999/xlink" x="0px" y="0px"
	 viewBox="0 0 192 187.8" style="enable-background:new 0 0 192 187.8;" xml:space="preserve">
<path d="M176.6,3.6H3v5v22.3v124v19.8v7.4h173.6H189v-27.2v-124V3.6H176.6z M141.9,154.9h-22.3v-124h22.3V154.9z M84.8,30.9h22.3
	v124H84.8V30.9z M72.4,154.9H50.1v-124h22.3C72.4,30.9,72.4,154.9,72.4,154.9z M15.4,30.9h22.3v124H15.4V30.9z M154.3,154.9v-34.7
	h22.3v34.7H154.3z M159.2,87.9c0-2.7,2.2-5,5-5s5,2.2,5,5c0,1.7-0.9,3.2-2.2,4.1l2.2,13.2h-9.9l2.2-13.2
	C160.1,91.2,159.2,89.7,159.2,87.9z M176.6,68.1h-22.3V30.9h22.3V68.1z"/>
</svg>
