<svg id="Capa_1" data-name="Capa 1" xmlns="http://www.w3.org/2000/svg" viewBox="0 0 470 470"><defs><style>.cls-1{fill:#fff;}</style></defs><title>logo</title><path d="M263.39,363.35a7.42,7.42,0,0,0,0-11.09A9.31,9.31,0,0,0,257,350h-2.21v15.53H257A9.31,9.31,0,0,0,263.39,363.35Z"/><path d="M262.65,408.12a3.4,3.4,0,0,0-1.71-.48,3,3,0,0,0-2.7,1.64,10.32,10.32,0,0,0,.12,8.86,3,3,0,0,0,2.71,1.73,3.13,3.13,0,0,0,1.95-1,3.55,3.55,0,0,0,.91-2.5v-7.19A4.22,4.22,0,0,0,262.65,408.12Z"/><path d="M243.18,414.84a4,4,0,0,0-.46,2,3.75,3.75,0,0,0,.59,1.95,1.87,1.87,0,0,0,1.68.83,2.23,2.23,0,0,0,2.05-1.32,6.89,6.89,0,0,0,.74-3.37v-3.48a11.32,11.32,0,0,1-3.14,2A3.09,3.09,0,0,0,243.18,414.84Z"/><path d="M276.76,407.3q-1.45,0-2.4,1.92a10.49,10.49,0,0,0-.93,4.62,10,10,0,0,0,.93,4.5q.93,1.81,2.25,1.81t2.32-1.89a10.11,10.11,0,0,0,1-4.63,10.8,10.8,0,0,0-.82-4.58A2.55,2.55,0,0,0,276.76,407.3Z"/><path d="M237.3,422.36a2.72,2.72,0,0,0-1.66-.44H229a5.59,5.59,0,0,1-1.66-.19,5.2,5.2,0,0,1-1.26-.59,3.41,3.41,0,0,0-1,2.36,2.84,2.84,0,0,0,1.44,2.62,8.58,8.58,0,0,0,4.71.87,9.76,9.76,0,0,0,5.44-1.6,3.34,3.34,0,0,0,.84-.9,1.92,1.92,0,0,0,.3-1.13A1.26,1.26,0,0,0,237.3,422.36Z"/><path d="M293.76,365.34a9.19,9.19,0,0,0-1.76-3.78,3.68,3.68,0,0,0-3.17-1.69,4,4,0,0,0-2.54,1,6.53,6.53,0,0,0-1.69,2.47,15.85,15.85,0,0,0-.92,2.94,19.91,19.91,0,0,0-.4,2.82h10.88A14.2,14.2,0,0,0,293.76,365.34Z"/><path d="M202.24,407.72a3.4,3.4,0,0,0-1.71.48,4.42,4.42,0,0,0-1.29,1.06v7.19a3.72,3.72,0,0,0,.91,2.5,3.13,3.13,0,0,0,1.95,1,3,3,0,0,0,2.71-1.73,10.32,10.32,0,0,0,.12-8.86A3,3,0,0,0,202.24,407.72Z"/><path d="M181.23,413.46h6.46q-.36-.86-3.32-8.21Z"/><path d="M200.51,365.34a9.19,9.19,0,0,0-1.76-3.78,3.68,3.68,0,0,0-3.17-1.69,4,4,0,0,0-2.54,1,6.53,6.53,0,0,0-1.69,2.47,15.85,15.85,0,0,0-.92,2.94,19.91,19.91,0,0,0-.4,2.82h10.88A14.2,14.2,0,0,0,200.51,365.34Z"/><path d="M231.43,415.73a2.25,2.25,0,0,0,1.92-1.25,5.19,5.19,0,0,0,.85-3.07,5.08,5.08,0,0,0-1.14-3.6,2.24,2.24,0,0,0-1.62-.63,2.2,2.2,0,0,0-2,1.36,6,6,0,0,0-.73,3,5.28,5.28,0,0,0,.77,3A2.34,2.34,0,0,0,231.43,415.73Z"/><path d="M126.26,357.82a7.13,7.13,0,0,0-2.49-5.55,9.31,9.31,0,0,0-6.44-2.22h-2.21v15.53h2.21a9.31,9.31,0,0,0,6.44-2.22A7.11,7.11,0,0,0,126.26,357.82Z"/><path d="M340.13,365.34a9.19,9.19,0,0,0-1.76-3.78,3.68,3.68,0,0,0-3.17-1.69,4,4,0,0,0-2.54,1,6.53,6.53,0,0,0-1.69,2.47,15.85,15.85,0,0,0-.92,2.94,19.91,19.91,0,0,0-.4,2.82h10.88A14.2,14.2,0,0,0,340.13,365.34Z"/><path d="M217.11,407.3q-1.45,0-2.4,1.92a10.49,10.49,0,0,0-.93,4.62,10,10,0,0,0,.93,4.5q.93,1.81,2.25,1.81t2.32-1.89a10.11,10.11,0,0,0,1-4.63,10.8,10.8,0,0,0-.82-4.58A2.55,2.55,0,0,0,217.11,407.3Z"/><path d="M154.15,365.34a9.19,9.19,0,0,0-1.76-3.78,3.68,3.68,0,0,0-3.17-1.69,4,4,0,0,0-2.54,1,6.53,6.53,0,0,0-1.69,2.47,15.85,15.85,0,0,0-.92,2.94,19.91,19.91,0,0,0-.4,2.82h10.88A14.2,14.2,0,0,0,154.15,365.34Z"/><path d="M138.76,156.62q0,22.68,17.09,37.88T200,209.7h15.14V131.85q.13-23.86-19.08-28.38-24.39,1-40.22,15.11Q138.76,133.78,138.76,156.62Z"/><path d="M256.58,131.85V209.7h15q27,0,44.07-15.2t17-37.88q0-22.84-17-38-15.74-14-40-15.1Q256.46,108,256.58,131.85Z"/><path d="M235.5,9C110.41,9,9,110.41,9,235.5S110.41,462,235.5,462,462,360.59,462,235.5,360.59,9,235.5,9ZM138.57,383.14H126.9a15.09,15.09,0,0,0-1.71-6.2l-3-6.69a6.51,6.51,0,0,0-2.33-2.68,6.72,6.72,0,0,0-3.81-1h-.94v11.34q0,4.25,4.25,4.25v.94H104.84v-.94q4.25,0,4.25-4.25V354.2q0-4.3-4.25-4.3v-1h17.31a11,11,0,0,1,7.33,2.58,7.93,7.93,0,0,1,3,6.25,7.82,7.82,0,0,1-2.44,5.71,10.67,10.67,0,0,1-6.15,3,5.19,5.19,0,0,1,4.44,3.24l3.22,6.44q3,6.08,7,6.08ZM156.21,381a10.85,10.85,0,0,1-7.33,2.65,10.59,10.59,0,0,1-8-3.52,12.19,12.19,0,0,1-3.24-8.64,12.86,12.86,0,0,1,3.24-8.95,10.81,10.81,0,0,1,8.46-3.69,10.48,10.48,0,0,1,8.06,3.12,12.48,12.48,0,0,1,3.19,8.34h-17a11.54,11.54,0,0,0,2,7.75,6.7,6.7,0,0,0,5.8,3.12,7.07,7.07,0,0,0,5-2.14,12.8,12.8,0,0,0,3.05-5.45h.75A12.81,12.81,0,0,1,156.21,381Zm11,12.68a6.94,6.94,0,0,1-3.35,1.55,5.93,5.93,0,0,1-3.11-.24,2.74,2.74,0,0,1-1.7-1.57,2.94,2.94,0,0,1,0-2,1.88,1.88,0,0,1,1.28-1.26,2.23,2.23,0,0,1,2.49.8,4.84,4.84,0,0,0,1.69,1.43,2.33,2.33,0,0,0,2-.07,6.14,6.14,0,0,0,2.51-3.19l2.56-5.92-7.42-17.95q-2-4.93-5-4.93v-.8h11.82v.8q-2.75,0-.73,4.93l4.39,10.66L179.3,365q2-4.72-1.5-4.75v-.8h8.08v.8q-3.38.1-5.45,4.93L170,389.46A10.83,10.83,0,0,1,167.25,393.64ZM192,378a6.7,6.7,0,0,0,5.8,3.12,7.07,7.07,0,0,0,5-2.14,12.8,12.8,0,0,0,3.05-5.45h.75a12.81,12.81,0,0,1-4.06,7.4,10.85,10.85,0,0,1-7.33,2.65,10.59,10.59,0,0,1-8-3.52,12.19,12.19,0,0,1-3.24-8.64,12.86,12.86,0,0,1,3.24-8.95,10.81,10.81,0,0,1,8.46-3.69,10.48,10.48,0,0,1,8.06,3.12,12.48,12.48,0,0,1,3.19,8.34H190A11.54,11.54,0,0,0,192,378Zm15.37,40.83a5.73,5.73,0,0,1-4.4,2,6.1,6.1,0,0,1-3.65-1.33,1.51,1.51,0,0,0-1.69-.28,2.32,2.32,0,0,0-1.07,1.76H196v-.48h-8v-.59q2.28,0,1.42-2.11L187.92,414H181l-1.45,3.78q-.85,2.11,1.44,2.11v.59h-5v-.59a2.87,2.87,0,0,0,2.89-2.11l6.4-16.83h.91l7,16.83a3.05,3.05,0,0,0,2.81,2.11V403.41q0-2.32-1.87-2V401l5.07-.79v8.09a5.53,5.53,0,0,1,3.89-1.6,5.65,5.65,0,0,1,4.38,1.84,7.16,7.16,0,0,1,1.65,5.09A7.47,7.47,0,0,1,207.35,418.84ZM209.88,382q-.59.21-.61,1.1h-.78l-.14-7.52h.75a9.11,9.11,0,0,0,.54,2.18,6,6,0,0,0,1.41,1.86,9.61,9.61,0,0,0,5.21,2.51,6.09,6.09,0,0,0,4.28-.68,3.23,3.23,0,0,0,1.57-2.58,3.46,3.46,0,0,0-.7-2.72,5.6,5.6,0,0,0-2.11-1.43,35.09,35.09,0,0,0-3.55-1.34q-2-.75-3-1.15a6.76,6.76,0,0,1-4.16-6.58,7,7,0,0,1,2-4.89,7.72,7.72,0,0,1,5.61-1.95,10.41,10.41,0,0,1,3.55.63,4,4,0,0,0,2,.47.58.58,0,0,0,.47-.71h.8l.75,7h-.75a7.45,7.45,0,0,0-2.4-4.65,5.06,5.06,0,0,0-2-1.17,6,6,0,0,0-2.35-.4,4.43,4.43,0,0,0-3,1,3.07,3.07,0,0,0-1.13,2.16,2.85,2.85,0,0,0,.85,2.25,15.2,15.2,0,0,0,4.25,2.09,25.74,25.74,0,0,1,4.56,1.88,6.76,6.76,0,0,1,3.48,6.48,8.38,8.38,0,0,1-2.47,5.61q-2.35,2.32-6.55,1.9a13.78,13.78,0,0,1-2.89-.63Q210.49,381.8,209.88,382Zm11.78,36.69a6.44,6.44,0,0,1-4.8,2.09,6.28,6.28,0,0,1-4.71-2,6.89,6.89,0,0,1-1.91-4.94,7.29,7.29,0,0,1,1.92-5.11,6.36,6.36,0,0,1,5-2.11,6.14,6.14,0,0,1,4.71,1.92,7.38,7.38,0,0,1,1.87,5A7.07,7.07,0,0,1,221.66,418.72Zm15.07,7.79a11.89,11.89,0,0,1-5.42,1.26,10,10,0,0,1-5-1,3.22,3.22,0,0,1-1.4-1.37,3.71,3.71,0,0,1-.4-1.81,3.82,3.82,0,0,1,1.2-2.74,3,3,0,0,1-.77-1.29,2.59,2.59,0,0,1-.07-1.19,4.73,4.73,0,0,1,2.83-3.06,5.14,5.14,0,0,1-1.64-1.62,3.87,3.87,0,0,1-.64-2.15,4.31,4.31,0,0,1,1.73-3.49,6.62,6.62,0,0,1,4.4-1.41,7.86,7.86,0,0,1,1.53.17,4.46,4.46,0,0,1,5-1.37,1.68,1.68,0,0,1,1.09,1.07,1.24,1.24,0,0,1-.09.89,1,1,0,0,1-.72.54,1.41,1.41,0,0,1-.93-.09,2.61,2.61,0,0,1-.82-.63,3.61,3.61,0,0,0-1-.82,1.11,1.11,0,0,0-.87-.05,1.55,1.55,0,0,0-.87.63,5,5,0,0,1,2.68,1.56,4.23,4.23,0,0,1,1,2.87,4.46,4.46,0,0,1-1.83,3.52,6.94,6.94,0,0,1-4.32,1.36,7.24,7.24,0,0,1-3.33-.73v-.05a2.4,2.4,0,0,0-.82.93,1.35,1.35,0,0,0-.19,1q.28,1,1.95,1h5.48q5.19,0,5.22,4Q239.67,425,236.73,426.51Zm14-5.79q-2.71,0-2.87-2a4.5,4.5,0,0,1-1.66,1.49,5.27,5.27,0,0,1-2.66.6,4.57,4.57,0,0,1-2.9-1.07,3.51,3.51,0,0,1-1.14-2.75q0-2.79,3.11-3.87,5.19-1.83,5.15-4.12,0-1.74-2.7-1.74a2.23,2.23,0,0,0-1.56.44,5.39,5.39,0,0,0-.59,1.24,2.82,2.82,0,0,1-.55.9,1.25,1.25,0,0,1-.71.42,1.09,1.09,0,0,1-.89-.19,1.18,1.18,0,0,1-.46-.8,1.74,1.74,0,0,1,.8-1.46,6.2,6.2,0,0,1,3.95-1.19q4.26,0,5.33,2.15a6.28,6.28,0,0,1,.55,2.9v6.74q0,1.25.67,1.45a2.53,2.53,0,0,0,1.84-.54l.21.42A5.29,5.29,0,0,1,250.75,420.72Zm-6.29-70.82v-1h17.31a11,11,0,0,1,7.33,2.58,7.93,7.93,0,0,1,3,6.25,7.82,7.82,0,0,1-2.44,5.71,10.67,10.67,0,0,1-6.15,3,5.19,5.19,0,0,1,4.44,3.24l3.22,6.44q3,6.08,7,6.08v.94H266.51a15.09,15.09,0,0,0-1.71-6.2l-3-6.69a6.51,6.51,0,0,0-2.33-2.68,6.72,6.72,0,0,0-3.81-1h-.94v11.34q0,4.25,4.25,4.25v.94H244.46v-.94q4.25,0,4.25-4.25V354.2Q248.73,349.9,244.46,349.9Zm24.62,69.8-4.64,1.13a2.63,2.63,0,0,1-.5-1.61,6.29,6.29,0,0,1-4.07,1.58,5.3,5.3,0,0,1-4.21-1.83,7.51,7.51,0,0,1-1.57-5.06,7.72,7.72,0,0,1,1.72-5.23,5.27,5.27,0,0,1,4.21-2,6.59,6.59,0,0,1,3.92,1.34v-4.6q0-2.32-1.85-2V401l5-.81v17.1q0,2.3,1.95,2Zm12.23-1a6.44,6.44,0,0,1-4.8,2.09,6.28,6.28,0,0,1-4.71-2,6.89,6.89,0,0,1-1.91-4.94,7.29,7.29,0,0,1,1.92-5.11,6.36,6.36,0,0,1,5-2.11,6.14,6.14,0,0,1,4.71,1.92,7.38,7.38,0,0,1,1.87,5A7.07,7.07,0,0,1,281.31,418.72Zm11.07.9a4.42,4.42,0,0,1-3.74,1.09,7.85,7.85,0,0,1-1.65-.36,4.36,4.36,0,0,0-2-.47c-.22.08-.34.29-.35.63h-.44l-.08-4.29h.43a5.21,5.21,0,0,0,.31,1.25,3.43,3.43,0,0,0,.81,1.06,5.49,5.49,0,0,0,3,1.44,3.48,3.48,0,0,0,2.44-.39,1.84,1.84,0,0,0,.9-1.48,2,2,0,0,0-.4-1.56,3.2,3.2,0,0,0-1.21-.82,20.09,20.09,0,0,0-2-.76q-1.17-.43-1.72-.66a3.86,3.86,0,0,1-2.37-3.76,4,4,0,0,1,1.15-2.79,4.41,4.41,0,0,1,3.21-1.11,5.93,5.93,0,0,1,2,.36,2.28,2.28,0,0,0,1.15.27.33.33,0,0,0,.27-.4h.46l.43,4h-.43a4.25,4.25,0,0,0-1.37-2.66,2.89,2.89,0,0,0-1.17-.67,3.41,3.41,0,0,0-1.34-.23,2.53,2.53,0,0,0-1.73.59,1.75,1.75,0,0,0-.64,1.24,1.63,1.63,0,0,0,.48,1.29,8.7,8.7,0,0,0,2.43,1.19,14.72,14.72,0,0,1,2.6,1.07,3.86,3.86,0,0,1,2,3.7A4.78,4.78,0,0,1,292.38,419.62ZM295.83,381a10.85,10.85,0,0,1-7.33,2.65,10.59,10.59,0,0,1-8-3.52,12.19,12.19,0,0,1-3.24-8.64,12.86,12.86,0,0,1,3.24-8.95,10.81,10.81,0,0,1,8.46-3.69,10.48,10.48,0,0,1,8.06,3.12,12.48,12.48,0,0,1,3.19,8.34h-17a11.54,11.54,0,0,0,2,7.75,6.7,6.7,0,0,0,5.8,3.12,7.07,7.07,0,0,0,5-2.14,12.8,12.8,0,0,0,3.05-5.45h.75A12.81,12.81,0,0,1,295.83,381ZM320,365.19l-10.38,24.26a10.83,10.83,0,0,1-2.79,4.18,6.94,6.94,0,0,1-3.35,1.55,5.93,5.93,0,0,1-3.11-.24,2.74,2.74,0,0,1-1.7-1.57,2.94,2.94,0,0,1,0-2,1.88,1.88,0,0,1,1.28-1.26,2.23,2.23,0,0,1,2.49.8,4.84,4.84,0,0,0,1.69,1.43,2.33,2.33,0,0,0,2-.07,6.14,6.14,0,0,0,2.51-3.19l2.56-5.92-7.42-17.95q-2-4.93-5-4.93v-.8h11.82v.8q-2.75,0-.73,4.93l4.39,10.66L318.92,365q2-4.72-1.5-4.75v-.8h8.08v.8Q322.11,360.36,320,365.19ZM331.6,378a6.7,6.7,0,0,0,5.8,3.12,7.07,7.07,0,0,0,5-2.14,12.8,12.8,0,0,0,3.05-5.45h.75a12.81,12.81,0,0,1-4.06,7.4,10.85,10.85,0,0,1-7.33,2.65,10.59,10.59,0,0,1-8-3.52,12.19,12.19,0,0,1-3.24-8.64,12.86,12.86,0,0,1,3.24-8.95,10.81,10.81,0,0,1,8.46-3.69,10.48,10.48,0,0,1,8.06,3.12,12.48,12.48,0,0,1,3.19,8.34h-17A11.54,11.54,0,0,0,331.6,378Zm30.79,3.57q-2.35,2.32-6.55,1.9a13.78,13.78,0,0,1-2.89-.63q-2.84-1.06-3.45-.82t-.61,1.1h-.78l-.14-7.52h.75a9.11,9.11,0,0,0,.54,2.18,6,6,0,0,0,1.41,1.86,9.61,9.61,0,0,0,5.21,2.51,6.09,6.09,0,0,0,4.28-.68,3.23,3.23,0,0,0,1.57-2.58,3.46,3.46,0,0,0-.7-2.72,5.6,5.6,0,0,0-2.11-1.43,35.09,35.09,0,0,0-3.55-1.34q-2-.75-3-1.15a6.76,6.76,0,0,1-4.16-6.58,7,7,0,0,1,2-4.89,7.72,7.72,0,0,1,5.61-1.95,10.41,10.41,0,0,1,3.55.63,4,4,0,0,0,2,.47.58.58,0,0,0,.47-.71h.8l.75,7h-.75a7.45,7.45,0,0,0-2.4-4.65,5.06,5.06,0,0,0-2-1.17,6,6,0,0,0-2.35-.4,4.43,4.43,0,0,0-3,1,3.07,3.07,0,0,0-1.13,2.16,2.85,2.85,0,0,0,.85,2.25,15.2,15.2,0,0,0,4.25,2.09,25.74,25.74,0,0,1,4.56,1.88,6.76,6.76,0,0,1,3.48,6.48A8.38,8.38,0,0,1,362.39,381.59ZM337.06,330q.64-15-11.74-42.46l-20.43-45.84A44.55,44.55,0,0,0,289,223.37q-9.81-6.59-26.06-6.59h-6.33v77.69q0,22.8,17.7,27.74a42.31,42.31,0,0,0,11,1.37h.48V330H186v-6.43q14.62,0,21.91-7.23t7.25-21.88V216.78h-6.43q-16.28,0-26.11,6.59a44.58,44.58,0,0,0-16,18.34l-20.47,45.84q-12.41,27.5-11.77,42.46H54.3v-6.43q27.4,0,48-41.66l22.08-44.07q10.64-21.07,30.46-22.2-25.79-3.86-42.23-20.27Q95.89,178.66,95.88,156.3q0-25.09,20.79-42.78Q137.79,95.82,167,95.82H304.57q29.11,0,50.18,17.69,20.75,17.7,20.75,42.78,0,22.36-16.73,39.08-16.41,16.41-42.14,20.27,19.78,1.13,30.4,22.2l22,44.07q20.59,41.66,47.93,41.66V330Z"/><path class="cls-1" d="M196.05,419.92h0v.59h0Z"/></svg>