<?xml version="1.0" encoding="utf-8"?>
<!-- Generator: Adobe Illustrator 21.1.0, SVG Export Plug-In . SVG Version: 6.00 Build 0)  -->
<svg version="1.1" id="Capa_1" xmlns="http://www.w3.org/2000/svg" xmlns:xlink="http://www.w3.org/1999/xlink" x="0px" y="0px"
	 viewBox="0 0 136.5 152" style="enable-background:new 0 0 136.5 152;" xml:space="preserve">
<style type="text/css">
	.st0{fill:#FFFFFF;}
</style>
<g>
	<path class="st0" d="M17.6,2.3v24.7H12L8.6,15.8v11.2H3.3V2.3h5.4l3.6,11.1V2.3H17.6z"/>
	<path class="st0" d="M34.9,16.8c0,2.5-0.1,4.2-0.2,5.3c-0.1,1-0.5,2-1.1,2.8c-0.6,0.9-1.4,1.5-2.5,2s-2.3,0.7-3.7,0.7
		c-1.3,0-2.5-0.2-3.6-0.6c-1.1-0.4-1.9-1.1-2.5-1.9c-0.6-0.9-1-1.8-1.1-2.8S20,19.4,20,16.8v-4.2c0-2.5,0.1-4.2,0.2-5.3
		s0.5-2,1.1-2.8c0.6-0.9,1.4-1.5,2.5-2s2.3-0.7,3.7-0.7C28.8,1.8,30,2,31,2.5s1.9,1.1,2.5,1.9s1,1.8,1.1,2.8s0.2,2.8,0.2,5.3V16.8z
		 M28.5,8.7c0-1.2-0.1-1.9-0.2-2.2C28.1,6.2,27.9,6,27.5,6c-0.3,0-0.6,0.1-0.8,0.4s-0.3,1-0.3,2.3v11.5c0,1.4,0.1,2.3,0.2,2.7
		c0.1,0.3,0.4,0.5,0.8,0.5c0.4,0,0.7-0.2,0.8-0.6s0.2-1.3,0.2-2.8V8.7z"/>
	<path class="st0" d="M50.9,9.8h-6V8c0-0.9-0.1-1.4-0.2-1.6C44.5,6.1,44.3,6,43.9,6c-0.4,0-0.7,0.2-0.9,0.5
		c-0.2,0.3-0.3,0.8-0.3,1.4c0,0.8,0.1,1.4,0.3,1.9c0.2,0.4,0.8,0.9,1.8,1.5c2.9,1.7,4.7,3.1,5.4,4.2c0.7,1.1,1.1,2.8,1.1,5.3
		c0,1.8-0.2,3.1-0.6,3.9c-0.4,0.8-1.2,1.5-2.4,2.1c-1.2,0.6-2.6,0.8-4.1,0.8c-1.7,0-3.2-0.3-4.4-1c-1.2-0.7-2-1.5-2.4-2.5
		c-0.4-1-0.6-2.4-0.6-4.3v-1.6h6v3c0,0.9,0.1,1.5,0.3,1.8s0.5,0.4,0.9,0.4c0.4,0,0.7-0.2,1-0.5c0.2-0.3,0.3-0.8,0.3-1.5
		c0-1.5-0.2-2.4-0.6-2.9c-0.4-0.4-1.4-1.2-3-2.2c-1.6-1.1-2.7-1.8-3.2-2.3s-0.9-1.1-1.3-2s-0.5-1.9-0.5-3.2c0-1.9,0.2-3.3,0.7-4.2
		C38,3.7,38.7,3,39.8,2.6c1.1-0.5,2.4-0.7,3.9-0.7c1.7,0,3.1,0.3,4.3,0.8c1.2,0.5,2,1.2,2.3,2c0.4,0.8,0.6,2.2,0.6,4.2V9.8z"/>
	<path class="st0" d="M68.1,16.8c0,2.5-0.1,4.2-0.2,5.3c-0.1,1-0.5,2-1.1,2.8c-0.6,0.9-1.4,1.5-2.5,2c-1,0.5-2.3,0.7-3.7,0.7
		c-1.3,0-2.5-0.2-3.6-0.6c-1.1-0.4-1.9-1.1-2.5-1.9c-0.6-0.9-1-1.8-1.1-2.8c-0.1-1-0.2-2.8-0.2-5.3v-4.2c0-2.5,0.1-4.2,0.2-5.3
		s0.5-2,1.1-2.8C55.2,3.6,56,3,57,2.5s2.3-0.7,3.7-0.7c1.3,0,2.5,0.2,3.6,0.6c1.1,0.4,1.9,1.1,2.5,1.9c0.6,0.9,1,1.8,1.1,2.8
		s0.2,2.8,0.2,5.3V16.8z M61.7,8.7c0-1.2-0.1-1.9-0.2-2.2C61.4,6.2,61.1,6,60.7,6c-0.3,0-0.6,0.1-0.8,0.4c-0.2,0.3-0.3,1-0.3,2.3
		v11.5c0,1.4,0.1,2.3,0.2,2.7c0.1,0.3,0.4,0.5,0.8,0.5c0.4,0,0.7-0.2,0.8-0.6c0.1-0.4,0.2-1.3,0.2-2.8V8.7z"/>
	<path class="st0" d="M83.5,2.3v4.9h-3.8v19.8h-6.4V7.3h-3.8V2.3H83.5z"/>
	<path class="st0" d="M84.9,2.3h4.5c3,0,5.1,0.1,6.2,0.4c1.1,0.2,1.9,0.8,2.6,1.8s1,2.5,1,4.6c0,1.9-0.2,3.2-0.7,3.9
		c-0.5,0.7-1.4,1.1-2.8,1.2c1.3,0.3,2.1,0.7,2.6,1.3c0.4,0.5,0.7,1,0.8,1.5c0.1,0.4,0.2,1.7,0.2,3.7v6.5h-6v-8.2
		c0-1.3-0.1-2.1-0.3-2.5c-0.2-0.3-0.8-0.5-1.6-0.5v11.1h-6.4V2.3z M91.4,6.6v5.5c0.7,0,1.2-0.1,1.5-0.3c0.3-0.2,0.4-0.8,0.4-1.9V8.5
		c0-0.8-0.1-1.3-0.4-1.5C92.6,6.7,92.1,6.6,91.4,6.6z"/>
	<path class="st0" d="M116.5,16.8c0,2.5-0.1,4.2-0.2,5.3c-0.1,1-0.5,2-1.1,2.8c-0.6,0.9-1.4,1.5-2.5,2s-2.3,0.7-3.7,0.7
		c-1.3,0-2.5-0.2-3.6-0.6c-1.1-0.4-1.9-1.1-2.5-1.9c-0.6-0.9-1-1.8-1.1-2.8s-0.2-2.8-0.2-5.3v-4.2c0-2.5,0.1-4.2,0.2-5.3
		s0.5-2,1.1-2.8c0.6-0.9,1.4-1.5,2.5-2s2.3-0.7,3.7-0.7c1.3,0,2.5,0.2,3.6,0.6s1.9,1.1,2.5,1.9c0.6,0.9,1,1.8,1.1,2.8
		s0.2,2.8,0.2,5.3V16.8z M110,8.7c0-1.2-0.1-1.9-0.2-2.2c-0.1-0.3-0.4-0.5-0.8-0.5c-0.3,0-0.6,0.1-0.8,0.4c-0.2,0.3-0.3,1-0.3,2.3
		v11.5c0,1.4,0.1,2.3,0.2,2.7c0.1,0.3,0.4,0.5,0.8,0.5c0.4,0,0.7-0.2,0.8-0.6s0.2-1.3,0.2-2.8V8.7z"/>
	<path class="st0" d="M132.5,9.8h-6V8c0-0.9-0.1-1.4-0.2-1.6c-0.2-0.2-0.4-0.4-0.8-0.4c-0.4,0-0.7,0.2-0.9,0.5
		c-0.2,0.3-0.3,0.8-0.3,1.4c0,0.8,0.1,1.4,0.3,1.9c0.2,0.4,0.8,0.9,1.8,1.5c2.9,1.7,4.7,3.1,5.4,4.2c0.7,1.1,1.1,2.8,1.1,5.3
		c0,1.8-0.2,3.1-0.6,3.9c-0.4,0.8-1.2,1.5-2.4,2.1c-1.2,0.6-2.6,0.8-4.1,0.8c-1.7,0-3.2-0.3-4.4-1c-1.2-0.7-2-1.5-2.4-2.5
		c-0.4-1-0.6-2.4-0.6-4.3v-1.6h6v3c0,0.9,0.1,1.5,0.3,1.8s0.5,0.4,0.9,0.4c0.4,0,0.7-0.2,1-0.5c0.2-0.3,0.3-0.8,0.3-1.5
		c0-1.5-0.2-2.4-0.6-2.9c-0.4-0.4-1.4-1.2-3-2.2c-1.6-1.1-2.7-1.8-3.2-2.3c-0.5-0.5-0.9-1.1-1.3-2s-0.5-1.9-0.5-3.2
		c0-1.9,0.2-3.3,0.7-4.2s1.3-1.6,2.3-2.1c1.1-0.5,2.4-0.7,3.9-0.7c1.7,0,3.1,0.3,4.3,0.8c1.2,0.5,2,1.2,2.3,2s0.6,2.2,0.6,4.2V9.8z"
		/>
</g>
<g>
	<path class="st0" d="M14.3,37.5H9.6v-3.2c0-0.9-0.1-1.5-0.2-1.7c-0.1-0.2-0.3-0.3-0.7-0.3c-0.4,0-0.6,0.1-0.7,0.4
		C8,33,7.9,33.6,7.9,34.5v8.4c0,0.9,0.1,1.5,0.2,1.7c0.1,0.3,0.3,0.4,0.7,0.4c0.3,0,0.6-0.1,0.7-0.4c0.1-0.3,0.2-0.9,0.2-1.9v-2.3
		h4.7v0.7c0,1.9-0.1,3.2-0.4,4c-0.3,0.8-0.8,1.5-1.8,2.1c-0.9,0.6-2,0.9-3.3,0.9c-1.4,0-2.5-0.3-3.4-0.8S4,46.2,3.7,45.3
		c-0.3-0.9-0.4-2.2-0.4-4V36c0-1.3,0-2.3,0.1-2.9c0.1-0.7,0.4-1.3,0.8-1.9s1.1-1.1,1.8-1.4s1.7-0.5,2.7-0.5c1.4,0,2.5,0.3,3.4,0.8
		c0.9,0.5,1.5,1.2,1.8,2c0.3,0.8,0.4,2.1,0.4,3.7V37.5z"/>
	<path class="st0" d="M26.7,40.2c0,1.8,0,3.1-0.1,3.9c-0.1,0.8-0.4,1.5-0.8,2.1s-1.1,1.1-1.8,1.4c-0.8,0.3-1.7,0.5-2.7,0.5
		c-1,0-1.8-0.2-2.6-0.5c-0.8-0.3-1.4-0.8-1.9-1.4c-0.5-0.6-0.7-1.3-0.8-2.1c-0.1-0.7-0.1-2.1-0.1-3.9v-3.1c0-1.8,0-3.1,0.1-3.9
		s0.4-1.5,0.8-2.1c0.4-0.6,1.1-1.1,1.8-1.4s1.7-0.5,2.7-0.5c1,0,1.8,0.2,2.6,0.5s1.4,0.8,1.9,1.4c0.5,0.6,0.7,1.3,0.8,2.1
		c0.1,0.7,0.1,2.1,0.1,3.9V40.2z M22,34.3c0-0.8,0-1.4-0.1-1.6s-0.3-0.4-0.6-0.4c-0.2,0-0.4,0.1-0.6,0.3c-0.1,0.2-0.2,0.8-0.2,1.7
		v8.5c0,1.1,0,1.7,0.1,2c0.1,0.2,0.3,0.4,0.6,0.4c0.3,0,0.5-0.1,0.6-0.4c0.1-0.3,0.1-1,0.1-2V34.3z"/>
	<path class="st0" d="M39,29.6v18.2h-4.1l-2.4-8.3v8.3h-3.9V29.6h3.9l2.6,8.2v-8.2H39z"/>
	<path class="st0" d="M50.3,29.6v3.6h-2.8v14.5h-4.7V33.2H40v-3.6H50.3z"/>
	<path class="st0" d="M51.4,29.6h7.8v3.6h-3.1v3.4H59v3.5h-2.9v4h3.4v3.6h-8.1V29.6z"/>
	<path class="st0" d="M70.8,35.1h-4.4v-1.3c0-0.6-0.1-1-0.2-1.2c-0.1-0.2-0.3-0.3-0.6-0.3c-0.3,0-0.5,0.1-0.6,0.3
		c-0.1,0.2-0.2,0.6-0.2,1.1c0,0.6,0.1,1.1,0.2,1.4c0.2,0.3,0.6,0.7,1.3,1.1c2.1,1.2,3.4,2.3,3.9,3.1c0.5,0.8,0.8,2.1,0.8,3.9
		c0,1.3-0.2,2.2-0.5,2.9c-0.3,0.6-0.9,1.1-1.7,1.5c-0.9,0.4-1.9,0.6-3,0.6c-1.3,0-2.3-0.2-3.2-0.7c-0.9-0.5-1.5-1.1-1.7-1.8
		c-0.3-0.7-0.4-1.8-0.4-3.2v-1.2H65v2.2c0,0.7,0.1,1.1,0.2,1.3c0.1,0.2,0.3,0.3,0.7,0.3s0.5-0.1,0.7-0.4c0.2-0.2,0.2-0.6,0.2-1.1
		c0-1.1-0.1-1.8-0.4-2.1c-0.3-0.3-1-0.9-2.2-1.6c-1.2-0.8-1.9-1.3-2.3-1.7c-0.4-0.4-0.7-0.8-0.9-1.5s-0.4-1.4-0.4-2.4
		c0-1.4,0.2-2.4,0.5-3.1s0.9-1.1,1.7-1.5c0.8-0.4,1.7-0.5,2.9-0.5c1.2,0,2.3,0.2,3.1,0.6s1.4,0.9,1.7,1.5c0.3,0.6,0.4,1.6,0.4,3.1
		V35.1z"/>
	<path class="st0" d="M82.1,29.6v3.6h-2.8v14.5h-4.7V33.2h-2.8v-3.6H82.1z"/>
	<path class="st0" d="M90.4,29.6l2.7,18.2h-4.8L88,44.5h-1.7l-0.3,3.3h-4.9l2.4-18.2H90.4z M87.9,41.3c-0.2-2.1-0.5-4.6-0.7-7.6
		c-0.5,3.5-0.8,6-0.9,7.6H87.9z"/>
	<path class="st0" d="M108.4,29.6v18.2h-4.1l0-12.3l-1.6,12.3h-2.9l-1.7-12l0,12h-4.1V29.6h6.1c0.2,1.1,0.4,2.4,0.6,3.9l0.7,4.6
		l1.1-8.5H108.4z"/>
	<path class="st0" d="M121,40.2c0,1.8,0,3.1-0.1,3.9c-0.1,0.8-0.4,1.5-0.8,2.1s-1.1,1.1-1.8,1.4c-0.8,0.3-1.7,0.5-2.7,0.5
		c-1,0-1.8-0.2-2.6-0.5c-0.8-0.3-1.4-0.8-1.9-1.4s-0.7-1.3-0.8-2.1c-0.1-0.7-0.1-2.1-0.1-3.9v-3.1c0-1.8,0-3.1,0.1-3.9
		c0.1-0.8,0.4-1.5,0.8-2.1s1.1-1.1,1.8-1.4s1.7-0.5,2.7-0.5c1,0,1.8,0.2,2.6,0.5s1.4,0.8,1.9,1.4c0.5,0.6,0.7,1.3,0.8,2.1
		s0.1,2.1,0.1,3.9V40.2z M116.3,34.3c0-0.8,0-1.4-0.1-1.6c-0.1-0.2-0.3-0.4-0.6-0.4c-0.2,0-0.4,0.1-0.6,0.3
		c-0.1,0.2-0.2,0.8-0.2,1.7v8.5c0,1.1,0,1.7,0.1,2c0.1,0.2,0.3,0.4,0.6,0.4c0.3,0,0.5-0.1,0.6-0.4c0.1-0.3,0.1-1,0.1-2V34.3z"/>
	<path class="st0" d="M132.7,35.1h-4.4v-1.3c0-0.6-0.1-1-0.2-1.2c-0.1-0.2-0.3-0.3-0.6-0.3c-0.3,0-0.5,0.1-0.6,0.3
		c-0.1,0.2-0.2,0.6-0.2,1.1c0,0.6,0.1,1.1,0.2,1.4c0.2,0.3,0.6,0.7,1.3,1.1c2.1,1.2,3.4,2.3,3.9,3.1c0.5,0.8,0.8,2.1,0.8,3.9
		c0,1.3-0.2,2.2-0.5,2.9s-0.9,1.1-1.7,1.5c-0.9,0.4-1.9,0.6-3,0.6c-1.3,0-2.3-0.2-3.2-0.7c-0.9-0.5-1.5-1.1-1.7-1.8
		c-0.3-0.7-0.4-1.8-0.4-3.2v-1.2h4.4v2.2c0,0.7,0.1,1.1,0.2,1.3s0.3,0.3,0.7,0.3c0.3,0,0.5-0.1,0.7-0.4c0.2-0.2,0.2-0.6,0.2-1.1
		c0-1.1-0.1-1.8-0.4-2.1c-0.3-0.3-1-0.9-2.2-1.6c-1.2-0.8-1.9-1.3-2.3-1.7c-0.4-0.4-0.7-0.8-0.9-1.5c-0.2-0.6-0.4-1.4-0.4-2.4
		c0-1.4,0.2-2.4,0.5-3.1c0.4-0.6,0.9-1.1,1.7-1.5s1.7-0.5,2.9-0.5c1.2,0,2.3,0.2,3.1,0.6s1.4,0.9,1.7,1.5s0.4,1.6,0.4,3.1V35.1z"/>
</g>
<g>
	<path class="st0" d="M41.9,52.1V66H31.2v55.6H13.1V66H2.4V52.1H41.9z"/>
	<path class="st0" d="M87.1,52.1v46.4c0,5.3-0.2,9-0.5,11.1s-1.4,4.3-3,6.6c-1.7,2.2-3.9,3.9-6.7,5.1c-2.8,1.2-6,1.7-9.8,1.7
		c-4.1,0-7.8-0.7-11-2.1s-5.5-3.2-7.1-5.4c-1.6-2.2-2.5-4.5-2.8-7c-0.3-2.4-0.4-7.6-0.4-15.4V52.1h18.1v52.1c0,3,0.2,5,0.5,5.8
		c0.3,0.8,1,1.3,2,1.3c1.1,0,1.9-0.5,2.2-1.4s0.5-3.1,0.5-6.6V52.1H87.1z"/>
	<path class="st0" d="M132.4,73.1h-16.8v-5.1c0-2.4-0.2-3.9-0.6-4.6c-0.4-0.7-1.1-1-2.1-1c-1.1,0-1.9,0.4-2.5,1.3
		c-0.6,0.9-0.8,2.2-0.8,4c0,2.3,0.3,4.1,0.9,5.2c0.6,1.2,2.3,2.6,5.1,4.2c8,4.8,13.1,8.7,15.2,11.7c2.1,3.1,3.1,8,3.1,14.8
		c0,4.9-0.6,8.6-1.7,10.9c-1.2,2.3-3.4,4.3-6.7,5.9c-3.3,1.6-7.2,2.4-11.6,2.4c-4.8,0-9-0.9-12.4-2.7s-5.7-4.2-6.7-7
		c-1.1-2.8-1.6-6.9-1.6-12.1v-4.5h16.8v8.5c0,2.6,0.2,4.3,0.7,5c0.5,0.7,1.3,1.1,2.5,1.1c1.2,0,2.1-0.5,2.7-1.4
		c0.6-0.9,0.9-2.3,0.9-4.2c0-4.1-0.6-6.8-1.7-8c-1.1-1.3-4-3.4-8.5-6.3c-4.5-3-7.5-5.1-8.9-6.5c-1.5-1.3-2.7-3.2-3.6-5.6
		c-1-2.4-1.4-5.4-1.4-9.1c0-5.3,0.7-9.2,2-11.7c1.4-2.5,3.6-4.4,6.6-5.8c3-1.4,6.7-2.1,11-2.1c4.7,0,8.7,0.8,12,2.3
		c3.3,1.5,5.5,3.4,6.6,5.7c1.1,2.3,1.6,6.2,1.6,11.7V73.1z"/>
</g>
<g>
	<path class="st0" d="M2,126.1h6.1c1.7,0,2.9,0.1,3.8,0.4s1.6,0.6,2,1.1s0.8,1.1,0.9,1.8c0.2,0.7,0.2,1.8,0.2,3.2v2
		c0,1.5-0.2,2.6-0.5,3.3c-0.3,0.7-0.9,1.2-1.7,1.6c-0.8,0.4-1.9,0.5-3.2,0.5H8v9.4H2V126.1z M8,130.1v5.9c0.2,0,0.3,0,0.4,0
		c0.6,0,0.9-0.1,1.2-0.4c0.2-0.3,0.3-0.8,0.3-1.7V132c0-0.8-0.1-1.3-0.4-1.6C9.4,130.2,8.8,130.1,8,130.1z"/>
	<path class="st0" d="M16.8,126.1h4.3c2.9,0,4.8,0.1,5.8,0.3c1,0.2,1.8,0.8,2.5,1.7c0.6,0.9,1,2.4,1,4.4c0,1.8-0.2,3-0.7,3.7
		c-0.5,0.6-1.3,1-2.7,1.1c1.2,0.3,2,0.7,2.4,1.2c0.4,0.5,0.7,1,0.8,1.4c0.1,0.4,0.2,1.6,0.2,3.5v6.2h-5.6v-7.8c0-1.3-0.1-2-0.3-2.3
		c-0.2-0.3-0.7-0.4-1.6-0.4v10.5h-6.1V126.1z M22.9,130.1v5.2c0.7,0,1.2-0.1,1.4-0.3s0.4-0.8,0.4-1.8v-1.3c0-0.7-0.1-1.2-0.4-1.5
		S23.6,130.1,22.9,130.1z"/>
	<path class="st0" d="M32.7,126.1h10.1v4.7h-4.1v4.4h3.8v4.4h-3.8v5.1h4.5v4.7H32.7V126.1z"/>
	<path class="st0" d="M59,134.7h-6.1v-2.1c0-1.3-0.1-2.2-0.2-2.5c-0.1-0.3-0.4-0.5-0.8-0.5c-0.4,0-0.6,0.1-0.8,0.4
		c-0.1,0.3-0.2,1-0.2,2.2v11.2c0,1,0.1,1.7,0.2,2.1c0.1,0.3,0.4,0.5,0.8,0.5c0.4,0,0.7-0.2,0.9-0.6c0.2-0.4,0.2-1.1,0.2-2.2v-2.8
		h-1.2v-3.6H59v12.5h-3.8l-0.6-1.7c-0.4,0.7-0.9,1.3-1.6,1.6c-0.6,0.4-1.4,0.5-2.2,0.5c-1,0-2-0.2-2.9-0.7c-0.9-0.5-1.6-1.1-2-1.8
		c-0.5-0.7-0.8-1.5-0.9-2.3s-0.2-2-0.2-3.6v-6.9c0-2.2,0.1-3.9,0.4-4.9c0.2-1,0.9-1.9,2.1-2.8c1.1-0.8,2.6-1.3,4.4-1.3
		c1.8,0,3.3,0.4,4.4,1.1s1.9,1.6,2.3,2.6c0.4,1,0.5,2.5,0.5,4.4V134.7z"/>
	<path class="st0" d="M75.1,126.1v15.6c0,1.8-0.1,3-0.2,3.7s-0.5,1.5-1,2.2c-0.6,0.8-1.3,1.3-2.2,1.7c-0.9,0.4-2,0.6-3.3,0.6
		c-1.4,0-2.6-0.2-3.7-0.7c-1.1-0.5-1.9-1.1-2.4-1.8s-0.8-1.5-0.9-2.3c-0.1-0.8-0.1-2.6-0.1-5.2v-13.8h6.1v17.5c0,1,0.1,1.7,0.2,2
		c0.1,0.3,0.3,0.4,0.7,0.4c0.4,0,0.6-0.2,0.7-0.5c0.1-0.3,0.2-1.1,0.2-2.2v-17.2H75.1z"/>
	<path class="st0" d="M91,126.1v23.4h-5.3l-3.2-10.6v10.6h-5.1v-23.4h5.1l3.4,10.5v-10.5H91z"/>
	<path class="st0" d="M105.7,126.1v4.7h-3.6v18.7H96v-18.7h-3.6v-4.7H105.7z"/>
	<path class="st0" d="M116.4,126.1l3.5,23.4h-6.2l-0.3-4.2h-2.2l-0.4,4.2h-6.3l3.1-23.4H116.4z M113.2,141.1
		c-0.3-2.6-0.6-5.9-0.9-9.8c-0.6,4.5-1,7.7-1.2,9.8H113.2z"/>
	<path class="st0" d="M133.8,133.2h-5.6v-1.7c0-0.8-0.1-1.3-0.2-1.5c-0.1-0.2-0.4-0.3-0.7-0.3c-0.4,0-0.6,0.1-0.8,0.4
		c-0.2,0.3-0.3,0.8-0.3,1.4c0,0.8,0.1,1.4,0.3,1.8c0.2,0.4,0.8,0.9,1.7,1.4c2.7,1.6,4.4,2.9,5.1,4c0.7,1,1.1,2.7,1.1,5
		c0,1.7-0.2,2.9-0.6,3.7c-0.4,0.8-1.1,1.5-2.3,2c-1.1,0.5-2.4,0.8-3.9,0.8c-1.6,0-3-0.3-4.2-0.9s-1.9-1.4-2.3-2.4
		c-0.4-1-0.5-2.3-0.5-4.1v-1.5h5.6v2.8c0,0.9,0.1,1.4,0.2,1.7c0.2,0.3,0.4,0.4,0.8,0.4c0.4,0,0.7-0.2,0.9-0.5
		c0.2-0.3,0.3-0.8,0.3-1.4c0-1.4-0.2-2.3-0.6-2.7c-0.4-0.4-1.3-1.1-2.8-2.1c-1.5-1-2.5-1.7-3-2.2c-0.5-0.5-0.9-1.1-1.2-1.9
		s-0.5-1.8-0.5-3.1c0-1.8,0.2-3.1,0.7-3.9c0.5-0.8,1.2-1.5,2.2-1.9c1-0.5,2.3-0.7,3.7-0.7c1.6,0,2.9,0.3,4,0.8s1.8,1.2,2.2,1.9
		c0.4,0.8,0.5,2.1,0.5,3.9V133.2z"/>
</g>
</svg>
